# xmcd
#
# Track frame offsets: 
#        150
#        13956
#        27061
#        40696
#        54200
#        68701
#        81576
#        96045
#        108071
#        121488
#        134896
#        148361
#        162301
#        176131
#        190446
#        204941
#        220073
#        236168
#        253053
#        266418
#        280236
#        294151
#        308531
#        321236
#        336023
#
# Disc length: 4652 seconds
#
# Revision: 3
# Processed by: cddbd v1.5.2PL0 Copyright (c) Steve Scherf et al.
# Submitted via: ExactAudioCopy v0.99pb4
#
DISCID=76122a19
DTITLE=Charlie Parker - A Studio Chronicle 1940-1941 [CDA)
DYEAR=2003
DGENRE=Jazz
TTITLE0=I Found A New Baby
TTITLE1=Body And Soul
TTITLE2=Honeysuckle Rose
TTITLE3=Lady Be Good
TTITLE4=Coquette
TTITLE5=Moten Swing
TTITLE6=Blues
TTITLE7=Swingmatism
TTITLE8=Hootie Blues
TTITLE9=Dexter Blues
TTITLE10=Lonely Boy Blues
TTITLE11=Get Me On Your Mind
TTITLE12=The Jumpin' Blues
TTITLE13=Sepian Bounce
TTITLE14=Cherokee
TTITLE15=My Heart Tells Me
TTITLE16=I've Found A New Baby
TTITLE17=Body And Soul
TTITLE18=Tiny's Tempo
TTITLE19=I'll Always Love You Just The Same
TTITLE20=Romance Without Finance
TTITLE21=Red Cross
TTITLE22=What's The Matter Now
TTITLE23=I Want Every Bit Of It
TTITLE24=That's The Blues
EXTD=YEAR: 2003
EXTT0=
EXTT1=
EXTT2=
EXTT3=
EXTT4=
EXTT5=
EXTT6=
EXTT7=
EXTT8=
EXTT9=
EXTT10=
EXTT11=
EXTT12=
EXTT13=
EXTT14=
EXTT15=
EXTT16=
EXTT17=
EXTT18=
EXTT19=
EXTT20=
EXTT21=
EXTT22=
EXTT23=
EXTT24=
PLAYORDER=
